<svg version="1.0" xmlns="http://www.w3.org/2000/svg"
 width="1200.000000pt" height="150.000000pt" viewBox="0 0 1200.000000 150.000000"
 preserveAspectRatio="xMidYMid meet"><metadata>
Created by potrace 1.16, written by Peter Selinger 2001-2019
</metadata><g transform="translate(0.000000,150.000000) scale(0.100000,-0.100000)"
fill="#ffffff" stroke="none"><path d="M370 1101 c-120 -38 -213 -121 -267 -237 -26 -54 -28 -69 -28 -174 0
-111 1 -118 34 -182 40 -81 119 -159 195 -194 79 -36 193 -50 285 -34 79 13
194 66 198 90 2 8 -8 28 -22 44 l-24 30 -58 -31 c-151 -81 -323 -56 -432 62
-60 66 -84 124 -85 210 0 132 60 237 176 300 50 28 59 30 168 30 110 0 118 -1
177 -32 l61 -32 27 34 c14 19 23 40 20 45 -10 16 -94 56 -154 74 -72 21 -200
20 -271 -3z M5525 1097 c-117 -44 -197 -116 -246 -222 -148 -315 110 -650 459
-596 148 22 255 99 319 229 37 74 38 79 38 186 0 126 -14 168 -86 263 -106
141 -317 202 -484 140z m293 -106 c66 -34 118 -87 152 -153 26 -53 30 -72 30
-143 0 -71 -4 -90 -31 -143 -75 -151 -253 -222 -417 -168 -60 20 -153 100
-181 155 -94 184 0 407 199 472 14 5 66 7 115 6 70 -3 100 -8 133 -26z M11110
1106 c-73 -20 -119 -46 -181 -104 -246 -228 -141 -631 186 -717 196 -51 413
43 497 216 142 292 -63 621 -386 618 -39 0 -91 -6 -116 -13z m247 -108 c77
-29 153 -105 183 -185 29 -77 25 -186 -9 -256 -58 -120 -169 -187 -306 -187
-135 0 -234 57 -296 172 -32 59 -34 69 -34 153 0 75 4 97 24 135 43 81 79 118
153 155 63 31 79 35 149 35 56 0 95 -6 136 -22z M1491 1028 c-21 -46 -85 -180
-141 -298 -170 -358 -202 -432 -192 -442 5 -5 29 -8 52 -6 l44 3 165 353 c91
193 168 349 172 345 3 -5 44 -91 91 -193 47 -102 121 -258 163 -348 l78 -162
44 0 c26 0 46 5 49 13 4 12 -30 89 -268 592 l-104 220 -57 3 -57 3 -39 -83z
M2454 1096 c-3 -8 -4 -27 -2 -43 l3 -28 225 -5 c191 -4 230 -8 258 -23 61 -34
96 -129 73 -199 -15 -44 -68 -96 -112 -108 -18 -6 -122 -10 -230 -10 -155 0
-199 -3 -208 -14 -8 -9 -11 -70 -9 -197 l3 -184 45 0 45 0 3 153 3 153 121 -3
122 -3 108 -150 109 -150 47 0 c37 0 47 3 46 16 -1 8 -42 74 -93 146 -50 72
-91 135 -91 140 0 5 16 15 36 22 47 17 100 65 127 115 18 33 22 58 22 131 0
99 -10 126 -67 184 -65 66 -86 71 -346 71 -192 0 -234 -3 -238 -14z M3574
1097 c-3 -9 -4 -28 -2 -44 l3 -28 185 -5 c210 -6 242 -15 323 -89 132 -122
125 -365 -14 -485 -68 -58 -112 -68 -314 -75 l-180 -6 0 -40 0 -40 164 -3
c244 -4 321 17 419 115 199 197 144 549 -106 674 l-67 34 -202 3 c-174 3 -204
2 -209 -11z M4712 1098 c-9 -9 -12 -104 -12 -404 0 -431 -2 -418 62 -412 l33
3 0 410 0 410 -35 3 c-19 2 -41 -3 -48 -10z M6534 1096 c-3 -8 -4 -27 -2 -43
l3 -28 222 -5 c246 -6 250 -7 301 -81 20 -29 23 -44 20 -96 -5 -75 -26 -109
-88 -140 -41 -22 -57 -23 -235 -23 -138 0 -196 -4 -208 -13 -16 -11 -17 -32
-15 -197 l3 -185 39 -3 c24 -2 42 2 47 10 5 7 9 77 9 156 l0 142 178 0 c194 0
233 9 296 68 97 91 102 281 10 376 -67 69 -73 71 -337 74 -202 3 -238 1 -243
-12z M7524 1097 c-3 -9 -4 -140 -2 -294 l3 -278 28 -57 c35 -72 110 -140 185
-169 75 -29 221 -32 303 -7 114 36 202 123 234 232 12 42 15 104 13 317 l-3
264 -33 3 c-62 6 -62 5 -62 -267 0 -135 -5 -262 -10 -281 -31 -113 -121 -179
-254 -188 -130 -8 -229 39 -279 131 -21 40 -22 57 -27 322 l-5 280 -43 3 c-30
2 -44 -1 -48 -11z M8705 1098 c-3 -7 -4 -193 -3 -413 l3 -400 266 -3 267 -2 4
34 c2 18 2 39 0 45 -3 8 -71 11 -223 11 -120 0 -220 1 -221 3 -1 1 -4 166 -7
367 l-6 365 -38 3 c-24 2 -39 -1 -42 -10z M9637 1098 c-16 -12 -17 -46 -15
-413 l3 -400 40 0 40 0 8 85 c4 47 6 185 5 308 -2 122 -1 222 2 222 3 0 52
-62 110 -137 58 -75 118 -152 134 -170 50 -59 60 -52 208 136 l133 170 3 -296
c1 -205 6 -301 14 -310 7 -9 26 -13 47 -11 l36 3 3 400 c2 367 1 401 -15 413
-9 6 -24 12 -33 12 -10 0 -83 -87 -175 -205 -87 -113 -161 -208 -166 -210 -9
-6 -67 65 -223 273 -107 143 -123 156 -159 130z"/></g></svg>