<svg xmlns="http://www.w3.org/2000/svg" viewBox="0 0 9220 928">
<g transform="translate(64,864) scale(1,-1)" fill="#FFFFFF">
<path transform="translate(0,0)" d="M246 32Q175 62 118 118Q62 175 32 246Q0 321 0 400Q0 481 32 556Q63 627 118 682Q172 737 246 768Q319 800 401 800Q485 800 556 769Q629 737 684 682L589 589Q511 666 401 666Q346 666 297 646Q248 625 212 588Q176 552 155 504Q134 454 134.0 400.0Q134 346 155 296Q176 247 213 212Q248 175 297 154Q348 134 401 134L556 31Q485 0 401 0Q319 0 246 32Z"/>
<path transform="translate(788,0)" d="M332 266 266 134 198 0H50L450 800L717 266H567L450 501ZM783 133 850 0H701L635 133Z"/>
<path transform="translate(1755,0)" d="M570 383Q524 316 453 287L617 0H464L232 401L351 400Q405 400 444 439Q484 478 484 534Q484 588 444 627Q405 666 351 666H84L69 681L0 800H351Q461 800 539 722Q617 643 617 534Q617 449 570 383Z"/>
<path transform="translate(2584,0)" d="M635 554Q666 483 666.0 400.0Q666 317 635 246Q602 172 549 118Q494 64 421.0 32.0Q348 0 266 0H0L133 134H266Q321 134 370 154Q421 176 455 212Q491 250 512 297Q533 346 533.0 400.0Q533 454 512 503Q491 551 454.0 588.0Q417 625 369 646Q320 666 266 666H133L0 800H266Q346 800 421 768Q494 736 548.0 682.0Q602 628 635 554Z"/>
<path transform="translate(3482,0)" d="M133 668V134L0 0V800Z"/>
<path transform="translate(3690,0)" d="M400 800Q564 800 682 682Q801 565 801 400Q801 234 682 118Q564 0 400.0 0.0Q236 0 118.0 118.0Q0 236 0.0 400.0Q0 564 118 682Q234 800 400 800ZM400 666Q289 666 211 588Q134 511 134 400Q134 288 211.0 211.0Q288 134 400 134Q511 134 588 211Q666 289 666 400Q666 510 588.0 588.0Q510 666 400 666Z"/>
<path transform="translate(4723,0)" d="M588 722Q666 642 666 533Q666 421 588 344Q510 266 400 266H133V0H0V400H133H400Q454 400 493 439Q533 479 533 533Q533 588 493 627Q454 666 400 666H133L0 800H400Q510 800 588 722Z"/>
<path transform="translate(5571,0)" d="M533 333H666Q666 194 568 97Q471 0 332 0Q194 0 97.0 97.0Q0 194 0 333V800H133V333Q133 250 190 193Q248 134 332 134Q414 134 473 193Q533 253 533 333Z"/>
<path transform="translate(6421,0)" d="M133 134H533V0H0ZM0 800H133V778V315L0 181V778Z"/>
<path transform="translate(7105,0)" d="M0 614V800L401 400L801 800V0H669V478L401 211Z"/>
<path transform="translate(8127,0)" d="M400 800Q564 800 682 682Q801 565 801 400Q801 234 682 118Q564 0 400.0 0.0Q236 0 118.0 118.0Q0 236 0.0 400.0Q0 564 118 682Q234 800 400 800ZM400 666Q289 666 211 588Q134 511 134 400Q134 288 211.0 211.0Q288 134 400 134Q511 134 588 211Q666 289 666 400Q666 510 588.0 588.0Q510 666 400 666Z"/>
</g></svg>