<svg version="1.0" xmlns="http://www.w3.org/2000/svg"
 width="244.000000pt" height="69.000000pt" viewBox="0 0 244.000000 69.000000"
 preserveAspectRatio="xMidYMid meet"><metadata>
Created by potrace 1.16, written by Peter Selinger 2001-2019
</metadata><g transform="translate(0.000000,69.000000) scale(0.100000,-0.100000)"
fill="#ffffff" stroke="none"><path d="M215 358 c-63 -128 -115 -241 -115 -250 0 -13 8 -18 28 -18 26 0 33
12 131 213 l103 212 89 -185 c49 -102 95 -196 102 -210 13 -26 52 -39 69 -22
6 6 -31 94 -108 251 l-117 241 -34 0 -34 0 -114 -232z M1097 583 c-4 -3 -7
-17 -7 -30 0 -23 0 -23 130 -23 173 0 210 -18 210 -104 0 -25 -9 -45 -29 -68
l-29 -33 -139 -5 -138 -5 0 -110 0 -110 27 -3 27 -3 3 86 3 85 110 3 c90 2
116 6 145 23 53 31 80 77 80 138 0 68 -26 115 -80 143 -39 21 -57 23 -175 23
-72 0 -135 -3 -138 -7z M1947 583 c-4 -3 -7 -17 -7 -30 0 -23 1 -23 129 -23
71 0 141 -4 155 -10 38 -14 62 -70 50 -116 -16 -66 -46 -78 -197 -84 l-132 -5
-3 -113 -3 -113 28 3 c28 3 28 4 31 84 l3 82 120 7 c135 8 170 23 202 85 28
55 19 141 -19 181 -47 51 -79 59 -222 59 -71 0 -132 -3 -135 -7z"/></g></svg>